<?xml version="1.0" encoding="UTF-8" standalone="no"?>
<!-- Created with Inkscape (http://www.inkscape.org/) -->

<svg
   width="210mm"
   height="297mm"
   viewBox="0 0 210 297"
   version="1.1"
   id="svg5"
   xml:space="preserve"
   inkscape:version="1.2.1 (9c6d41e410, 2022-07-14)"
   sodipodi:docname="Facebook.svg"
   xmlns:inkscape="http://www.inkscape.org/namespaces/inkscape"
   xmlns:sodipodi="http://sodipodi.sourceforge.net/DTD/sodipodi-0.dtd"
   xmlns="http://www.w3.org/2000/svg"
   xmlns:svg="http://www.w3.org/2000/svg"><sodipodi:namedview
     id="namedview7"
     pagecolor="#505050"
     bordercolor="#eeeeee"
     borderopacity="1"
     inkscape:showpageshadow="0"
     inkscape:pageopacity="0"
     inkscape:pagecheckerboard="0"
     inkscape:deskcolor="#505050"
     inkscape:document-units="mm"
     showgrid="false"
     inkscape:zoom="0.70199214"
     inkscape:cx="316.95511"
     inkscape:cy="561.25984"
     inkscape:window-width="1920"
     inkscape:window-height="986"
     inkscape:window-x="-11"
     inkscape:window-y="-11"
     inkscape:window-maximized="1"
     inkscape:current-layer="layer1" /><defs
     id="defs2" /><g
     inkscape:label="Facebook"
     inkscape:groupmode="layer"
     id="layer1"><path
       style="fill:#000000;stroke-width:0.282222"
       d="m 55.97114,213.14742 -1.834445,-0.39541 -2.11041,-1.04045 -2.110411,-1.04046 -2.146283,-2.14628 -2.146283,-2.14628 -1.038632,-2.11042 -1.038633,-2.11041 -0.414773,-1.97555 -0.414773,-1.97556 V 141.33883 84.471053 l 0.414773,-1.975555 0.414773,-1.975556 1.038633,-2.11041 1.038632,-2.110411 2.146283,-2.146283 2.146283,-2.146283 2.110411,-1.038632 2.11041,-1.038633 1.975556,-0.414773 1.975555,-0.414773 h 56.867774 56.86778 l 1.97555,0.414773 1.97556,0.414773 2.11041,1.038633 2.11041,1.038632 2.14628,2.146283 2.14628,2.146283 1.03864,2.110411 1.03863,2.11041 0.41477,1.975556 0.41477,1.975555 v 56.867777 56.86777 l -0.41477,1.97556 -0.41477,1.97555 -1.03863,2.11041 -1.03864,2.11042 -2.14628,2.14628 -2.14628,2.14628 -2.11041,1.03863 -2.11041,1.03863 -1.97556,0.41478 -1.97555,0.41477 -57.00889,-0.0175 -57.008886,-0.0175 -1.834444,-0.39542 z m 64.62889,-33.84971 V 156.2966 h -8.46667 -8.46667 v -8.74888 -8.74889 h 8.43809 8.43809 l 0.12688,-8.11389 0.12688,-8.11389 0.61012,-2.25778 0.61012,-2.25777 1.13717,-2.37868 1.13718,-2.37867 1.22738,-1.71355 1.22738,-1.71355 1.94172,-1.86845 1.94173,-1.86845 1.9703,-1.25388 1.97029,-1.25388 1.74172,-0.7641 1.74172,-0.7641 2.20939,-0.60432 2.2094,-0.60432 7.83166,-0.12174 7.83167,-0.12174 v 8.77527 8.77527 h -6.48053 -6.48052 l -1.63336,0.60515 -1.63337,0.60515 -1.29985,1.29985 -1.29984,1.29985 -0.60516,1.63336 -0.60515,1.63337 v 6.76274 6.76275 h 10.1906 10.19059 l -0.14799,0.635 -0.14799,0.635 -1.33881,8.11389 -1.3388,8.11388 h -8.7038 -8.7038 v 23.00956 23.00955 l 17.00389,-0.079 17.00389,-0.079 1.07733,-0.66975 1.07733,-0.66977 0.75711,-1.14407 0.75712,-1.14407 V 141.35944 84.188831 l -0.66976,-1.077332 -0.66976,-1.077331 -1.14408,-0.757113 -1.14407,-0.757113 H 114.95558 57.764363 l -1.144074,0.757113 -1.144074,0.757113 -0.66976,1.077331 -0.66976,1.077332 -0.07329,56.545239 -0.07329,56.54524 0.299843,1.11353 0.299843,1.11353 1.10311,1.10312 1.103111,1.10311 0.928114,0.26766 0.928114,0.26766 30.973887,0.0255 30.973893,0.0255 z"
       id="path362"
       inkscape:label="Facebook" /></g></svg>
