<?xml version="1.0" encoding="UTF-8" standalone="no"?>
<!-- Created with Inkscape (http://www.inkscape.org/) -->

<svg
   version="1.1"
   id="svg2"
   width="438.85715"
   height="438.85715"
   viewBox="0 0 438.85715 438.85715"
   sodipodi:docname="Instagram.svg"
   inkscape:version="1.2.1 (9c6d41e410, 2022-07-14)"
   xmlns:inkscape="http://www.inkscape.org/namespaces/inkscape"
   xmlns:sodipodi="http://sodipodi.sourceforge.net/DTD/sodipodi-0.dtd"
   xmlns="http://www.w3.org/2000/svg"
   xmlns:svg="http://www.w3.org/2000/svg">
  <defs
     id="defs6" />
  <sodipodi:namedview
     id="namedview4"
     pagecolor="#505050"
     bordercolor="#eeeeee"
     borderopacity="1"
     inkscape:showpageshadow="0"
     inkscape:pageopacity="0"
     inkscape:pagecheckerboard="0"
     inkscape:deskcolor="#505050"
     showgrid="false"
     inkscape:zoom="1.7955729"
     inkscape:cx="187.96229"
     inkscape:cy="219.42857"
     inkscape:window-width="1920"
     inkscape:window-height="986"
     inkscape:window-x="-11"
     inkscape:window-y="-11"
     inkscape:window-maximized="1"
     inkscape:current-layer="g8" />
  <g
     inkscape:groupmode="layer"
     inkscape:label="Instagram"
     id="g8">
    <path
       style="fill:#000000;stroke-width:0.857143"
       d="m 94.714287,437.59521 -7.714286,-1.08001 -5.142857,-1.37121 -5.142857,-1.37122 -7.578778,-2.97835 -7.578777,-2.97836 -6.135509,-3.6217 -6.135508,-3.62171 -5.142857,-3.8443 -5.142857,-3.8443 -5.438007,-5.22774 -5.438008,-5.22773 -4.915318,-6.42857 -4.915317,-6.42858 -3.626131,-6.1355 -3.626131,-6.13552 -2.9806467,-7.57877 -2.9806468,-7.57878 -1.6181941,-6.42857 -1.6181942,-6.42857 -0.91928907,-7.71429 -0.91928903,-7.71428 V 219.42857 105 l 0.91928903,-7.714284 0.91928907,-7.714286 1.70811,-6.800054 1.7081101,-6.800054 2.9389334,-7.288432 2.9389333,-7.288432 3.573503,-6.054372 3.573503,-6.054371 3.844301,-5.142857 3.844302,-5.142857 5.227735,-5.438007 5.227734,-5.438008 6.428572,-4.915318 6.428571,-4.915317 6.135508,-3.626131 6.135509,-3.626131 L 69.135509,8.0604423 76.714287,5.0797955 83.142858,3.4616014 89.57143,1.8434072 97.285716,0.92411813 105,0.0048291 h 114.42857 114.42858 l 7.71428,0.91928903 7.71429,0.91928907 6.42857,1.6181942 6.42857,1.6181941 7.57878,2.9806468 7.57877,2.9806467 6.13552,3.621705 6.1355,3.621706 5.14286,3.844301 5.14286,3.844302 5.43801,5.227735 5.438,5.227734 4.91532,6.428572 4.91532,6.428571 3.57793,6.054371 3.57793,6.054372 2.93893,7.288432 2.93893,7.288432 1.70811,6.800054 1.70811,6.800054 0.91929,7.714286 L 438.85232,105 v 114.42857 114.42858 l -0.91929,7.71428 -0.91929,7.71429 -1.61819,6.42857 -1.6182,6.42857 -2.98064,7.57878 -2.98065,7.57877 -3.62613,6.13552 -3.62613,6.1355 -4.91532,6.42858 -4.91532,6.42857 -5.438,5.22773 -5.43801,5.22774 -5.14286,3.8443 -5.14286,3.8443 -6.1355,3.62171 -6.13552,3.6217 -7.57877,2.98065 -7.57878,2.98064 -6.42857,1.6182 -6.42857,1.61819 -7.71429,0.91929 -7.71428,0.91929 -115.71429,-0.0886 -115.71429,-0.0885 z m 255.857143,-38.45575 7.28572,-2.43197 5.57143,-3.02502 5.57143,-3.02501 3.42857,-2.61819 3.42857,-2.6182 3.72332,-3.49625 3.7233,-3.49624 3.70819,-4.77444 3.70818,-4.77445 2.99368,-5.51127 2.99367,-5.51127 2.43197,-7.28572 2.43198,-7.28571 V 219.42857 95.57143 l -2.43198,-7.285714 -2.43197,-7.285715 -2.99367,-5.511271 -2.99368,-5.51127 -3.70818,-4.774444 -3.70819,-4.774444 -3.7233,-3.496246 -3.72332,-3.496246 -3.42857,-2.618195 -3.42857,-2.618194 -5.57143,-3.025016 -5.57143,-3.025015 -7.28572,-2.431973 -7.28571,-2.431972 H 219.42857 95.57143 l -7.285714,2.431972 -7.285715,2.431973 -5.511271,2.993671 -5.51127,2.993672 -4.774444,3.708186 -4.774444,3.708185 -3.571874,3.723314 -3.571874,3.723313 -4.348874,6.355554 -4.348874,6.355554 -2.664467,6.909193 -2.664467,6.909197 -1.185616,5.592394 -1.185617,5.592397 v 118.71428 118.71429 l 1.185617,5.5924 1.185616,5.59239 2.664467,6.9092 2.664467,6.90919 4.348874,6.35556 4.348874,6.35555 3.571874,3.72332 3.571874,3.7233 4.714286,3.65453 4.714286,3.65453 4.766736,2.68407 4.766735,2.68408 5.090408,1.7876 5.090407,1.78758 5.142857,1.16246 5.142857,1.16246 121.714286,-0.15482 121.71429,-0.15482 z m -146.14286,-71.25853 -7.71428,-1.08001 -5.2297,-1.39091 -5.22972,-1.39089 -5.75313,-2.16548 -5.75314,-2.16547 -4.44573,-2.22513 -4.44572,-2.22513 -7.28572,-4.81142 -7.28571,-4.81142 -7.20732,-6.87896 -7.20731,-6.87896 -5.00518,-6.71466 -5.00517,-6.71466 -3.14828,-5.62964 -3.14827,-5.62964 -2.48791,-6.08427 -2.48792,-6.08428 -2.03904,-7.57838 -2.03905,-7.57839 -1.05396,-10.22662 -1.05396,-10.22663 1.0466,-10.04048 1.0466,-10.04048 1.65652,-6.48798 1.65653,-6.48798 2.1802,-5.79223 2.18018,-5.79223 2.22513,-4.44573 2.22513,-4.44572 4.81142,-7.28572 4.81142,-7.28571 6.87896,-7.20732 6.87896,-7.20731 6.71466,-5.00518 6.71466,-5.00517 5.62964,-3.14828 5.62964,-3.14827 6.08427,-2.48791 6.08428,-2.48792 7.57838,-2.03904 7.57839,-2.03905 10.20733,-1.05197 10.20733,-1.05198 10.20732,1.05198 10.20733,1.05197 7.57839,2.03905 7.57838,2.03904 6.08428,2.48792 6.08427,2.48791 5.62964,3.14827 5.62964,3.14828 6.71466,5.00517 6.71466,5.00518 6.87896,7.20731 6.87896,7.20732 4.81142,7.28571 4.81142,7.28572 2.22513,4.44572 2.22513,4.44573 2.18018,5.79223 2.1802,5.79223 1.65653,6.48798 1.65652,6.48798 1.0466,10.04048 1.0466,10.04048 -1.05396,10.22663 -1.05396,10.22662 -2.03905,7.57839 -2.03904,7.57838 -2.48792,6.08428 -2.48791,6.08427 -3.14827,5.62964 -3.14828,5.62964 -5.00517,6.71466 -5.00518,6.71466 -7.20731,6.87896 -7.20732,6.87896 -7.28571,4.81142 -7.28572,4.81142 -4.44572,2.22513 -4.44573,2.22513 -5.79223,2.18018 -5.79223,2.1802 -6.47633,1.62545 -6.47633,1.62546 -7.71428,0.91928 -7.71429,0.9193 -6,-0.0886 -6,-0.0885 z m 36.42858,-38.55594 7.28571,-2.33179 5.57143,-3.02502 5.57143,-3.02501 3.42857,-2.61819 3.42857,-2.6182 3.72332,-3.49625 3.72331,-3.49624 3.70819,-4.77444 3.70818,-4.77445 2.99367,-5.51126 2.99367,-5.51128 2.39494,-7.28571 2.39493,-7.28572 V 219.42857 205.28572 L 289.38814,198 l -2.39494,-7.28571 -3.02502,-5.57143 -3.02501,-5.57143 -2.61819,-3.42857 -2.6182,-3.42857 -3.49625,-3.72332 -3.49624,-3.72331 -4.77444,-3.70819 -4.77445,-3.70818 -5.51126,-2.99367 -5.51128,-2.99367 -7.28571,-2.39494 -7.28572,-2.39493 H 219.42857 205.28572 L 198,149.46901 l -7.28571,2.39494 -5.51128,2.99367 -5.51126,2.99367 -4.77445,3.70818 -4.77444,3.70819 -3.49624,3.72331 -3.49625,3.72332 -2.6182,3.42857 -2.61819,3.42857 -3.02501,5.57143 -3.02502,5.57143 -2.39494,7.28571 -2.39493,7.28572 v 14.14285 14.14286 l 2.39493,7.28572 2.39494,7.28571 3.02502,5.57143 3.02501,5.57143 2.61819,3.42857 2.6182,3.42857 3.49625,3.72332 3.49624,3.72331 4.71429,3.65452 4.71428,3.65453 4.76674,2.68408 4.76673,2.68407 5.09041,1.7876 5.09041,1.78759 5.14285,1.20552 5.14286,1.20551 12,-0.29807 12,-0.29806 z m 87,-163.7084 -5.14286,-2.14408 -3.93087,-4.09662 -3.93088,-4.09661 -1.93937,-5.13964 L 310.9738,105 l 0.37425,-6.056673 0.37427,-6.056674 2.05603,-4.116823 2.05604,-4.116821 3.39597,-3.395965 3.39596,-3.395964 3.17532,-1.619926 3.17532,-1.619928 4.8028,-0.753152 4.80279,-0.753153 4.28494,0.677356 4.28492,0.677356 4.33996,2.362101 4.33995,2.3621 2.50715,2.855487 2.50715,2.855487 1.78657,3.501971 1.78658,3.501968 0.70863,4.402766 0.70865,4.402777 -0.85369,4.68709 -0.85369,4.68709 -1.5668,3.07118 -1.5668,3.07118 -3.39596,3.39596 -3.39597,3.39597 -4.17349,2.11238 -4.1735,2.11236 -6.42857,0.25659 -6.42857,0.25659 z"
       id="path293"
       inkscape:label="Instagram" />
  </g>
</svg>
