<?xml version="1.0" encoding="UTF-8" standalone="no"?>
<!-- Created with Inkscape (http://www.inkscape.org/) -->

<svg
   version="1.1"
   id="svg2"
   width="512"
   height="512"
   viewBox="0 0 512 512"
   sodipodi:docname="Mail.svg"
   inkscape:version="1.2.1 (9c6d41e410, 2022-07-14)"
   xmlns:inkscape="http://www.inkscape.org/namespaces/inkscape"
   xmlns:sodipodi="http://sodipodi.sourceforge.net/DTD/sodipodi-0.dtd"
   xmlns="http://www.w3.org/2000/svg"
   xmlns:svg="http://www.w3.org/2000/svg">
  <defs
     id="defs6" />
  <sodipodi:namedview
     id="namedview4"
     pagecolor="#505050"
     bordercolor="#eeeeee"
     borderopacity="1"
     inkscape:showpageshadow="0"
     inkscape:pageopacity="0"
     inkscape:pagecheckerboard="0"
     inkscape:deskcolor="#505050"
     showgrid="false"
     inkscape:zoom="1.5390625"
     inkscape:cx="219.28934"
     inkscape:cy="256"
     inkscape:window-width="1920"
     inkscape:window-height="986"
     inkscape:window-x="-11"
     inkscape:window-y="-11"
     inkscape:window-maximized="1"
     inkscape:current-layer="g8" />
  <g
     inkscape:groupmode="layer"
     inkscape:label="Mail"
     id="g8">
    <path
       style="fill:#000000"
       d="M 66.454545,389.54545 64,387.09091 V 256 124.90909 L 66.454545,122.45455 68.909091,120 H 256 443.09091 l 2.45454,2.45455 L 448,124.90909 V 256 387.09091 l -2.45455,2.45454 L 443.09091,392 H 256 68.909091 Z M 431.98168,368.25 l -0.0183,-7.75 -50.7097,-36.5 -50.70971,-36.5 -19.18524,-13.79231 -19.18524,-13.7923 -6.52915,3.99628 -6.52915,3.99628 -4.92838,2.4974 -4.92838,2.4974 -6.59422,1.21503 -6.59421,1.21503 -6.98178,-1.24771 -6.98177,-1.24771 -11.22706,-6.40622 -11.22706,-6.40622 L 201.9767,272.76247 184.3011,285.5 132.18036,323 80.059628,360.5 80.029814,368.25 80,376 h 176 176 l -0.0183,-7.75 z m -288.19662,-73.1425 60.15683,-43.39251 -0.44382,-0.71811 -0.44382,-0.71812 L 148.33543,218.38938 93.616602,186.5 86.808301,179.98749 80,173.47498 v 83.81921 83.81922 L 81.814117,339.8067 83.628234,338.5 Z M 432,257.23985 v -83.76014 l -6.75,6.44599 -6.75,6.44599 -55,32.14774 -55,32.14775 0.34484,0.91641 0.34483,0.91641 61.15517,44.17205 61.15516,44.17205 0.25,0.0779 0.25,0.0779 v -83.76015 z m -165.81823,-0.66774 3.31823,-1.58647 70,-40.91407 70,-40.91406 5.75974,-5.66731 5.75974,-5.66731 2.66172,-4.54187 2.66172,-4.54188 2.32854,-6.41506 L 431,139.90902 V 137.95451 136 H 256 81 v 1.95451 1.95451 l 2.328541,6.41506 2.328542,6.41506 2.582026,4.38043 2.582027,4.38043 4.404975,4.57505 4.404976,4.57505 4.434453,3.02697 4.43446,3.02696 66,38.50168 66,38.50168 3.49353,1.79791 3.49352,1.79792 2.50648,0.82069 2.50647,0.82068 5.18177,-0.393 5.18177,-0.393 z"
       id="path293"
       inkscape:label="Mail" />
  </g>
</svg>
