<?xml version="1.0" encoding="UTF-8" standalone="no"?>
<!-- Created with Inkscape (http://www.inkscape.org/) -->

<svg
   version="1.1"
   id="svg2"
   width="528.51611"
   height="528.51611"
   viewBox="0 0 528.51611 528.51611"
   sodipodi:docname="Pinterest.svg"
   inkscape:version="1.2.1 (9c6d41e410, 2022-07-14)"
   xmlns:inkscape="http://www.inkscape.org/namespaces/inkscape"
   xmlns:sodipodi="http://sodipodi.sourceforge.net/DTD/sodipodi-0.dtd"
   xmlns="http://www.w3.org/2000/svg"
   xmlns:svg="http://www.w3.org/2000/svg">
  <defs
     id="defs6" />
  <sodipodi:namedview
     id="namedview4"
     pagecolor="#505050"
     bordercolor="#eeeeee"
     borderopacity="1"
     inkscape:showpageshadow="0"
     inkscape:pageopacity="0"
     inkscape:pagecheckerboard="0"
     inkscape:deskcolor="#505050"
     showgrid="false"
     inkscape:zoom="1.4909668"
     inkscape:cx="226.36318"
     inkscape:cy="264.25806"
     inkscape:window-width="1920"
     inkscape:window-height="986"
     inkscape:window-x="-11"
     inkscape:window-y="-11"
     inkscape:window-maximized="1"
     inkscape:current-layer="g8" />
  <g
     inkscape:groupmode="layer"
     inkscape:label="Pinterest"
     id="g8">
    <path
       style="fill:#000000;stroke-width:1.03226"
       d="m 127.48387,527.85628 -3.09678,-0.38591 -8.16031,-1.10543 -8.16031,-1.10544 -8.581749,-2.48689 -8.581759,-2.4869 -9.580514,-4.31263 -9.580515,-4.31262 -5.16129,-3.11368 -5.16129,-3.11368 -8.258065,-6.39806 -8.258064,-6.39807 -6.236603,-6.57656 -6.236603,-6.57656 -4.663464,-6.19354 -4.663464,-6.19355 -3.123718,-5.16129 -3.123719,-5.16129 -4.312625,-9.58051 -4.3126248,-9.58052 -2.4868959,-8.58176 -2.4868959,-8.58175 -1.3702412,-8.67644 -1.37024119,-8.67644 V 263.2258 123.35483 l 1.84976139,-9.80645 1.8497613,-9.80645 3.1824594,-9.29032 3.1824589,-9.290323 4.055291,-8.226092 4.05529,-8.226093 5.608127,-8.428493 5.608126,-8.428494 7.423181,-7.948671 7.423183,-7.948672 8.332792,-6.435882 8.332793,-6.435882 5.16129,-3.113678 5.16129,-3.113677 9.580515,-4.312625 9.580514,-4.3126248 8.581759,-2.4868959 8.581749,-2.4868959 8.67644,-1.3702412 8.67644,-1.37024119 h 139.87096 139.87097 l 9.80645,1.84976139 9.80645,1.8497613 9.29032,3.1824594 9.29032,3.1824589 8.2261,4.055291 8.22608,4.05529 8.80618,5.82287 8.80616,5.822871 10.37994,10.379941 10.37993,10.379939 5.82288,8.806166 5.82287,8.806164 4.05529,8.226093 4.05529,8.226092 3.18246,9.290323 3.18246,9.29032 1.84976,9.80645 1.84976,9.80645 v 140.90323 140.90322 l -1.84976,9.80645 -1.84976,9.80645 -3.18246,9.29032 -3.18246,9.29032 -4.05529,8.2261 -4.05529,8.22608 -5.82287,8.80618 -5.82288,8.80616 -10.37993,10.37994 -10.37994,10.37993 -8.80616,5.82288 -8.80618,5.82287 -8.22608,4.05529 -8.2261,4.05529 -9.29032,3.18078 -9.29032,3.18077 -8.77419,1.78208 -8.7742,1.78208 -138.32257,0.19047 -138.32258,0.19047 z m 289.03224,-36.7431 10.32258,-2.80875 10.32258,-5.10083 10.32258,-5.10082 6.70968,-5.08508 6.70968,-5.08508 5.71885,-6.17826 5.71885,-6.17827 3.88778,-5.85719 3.88778,-5.8572 3.43712,-6.96311 3.43712,-6.96312 2.21347,-7.17818 2.21346,-7.17818 1.51698,-8.69897 1.51698,-8.69897 V 264.25806 130.33494 l -1.51698,-8.69897 -1.51698,-8.69897 -2.21346,-7.17818 -2.21347,-7.178178 -3.43712,-6.96312 -3.43712,-6.963119 -3.88155,-5.940106 -3.88154,-5.940106 -8.30574,-8.305727 -8.30572,-8.305726 -5.94011,-3.881552 -5.94011,-3.881552 -6.96311,-3.437121 -6.96312,-3.43712 -7.17818,-2.213466 -7.17818,-2.213464 -8.69897,-1.516975 -8.69897,-1.516973 H 264.25806 130.33494 l -8.69897,1.516973 -8.69897,1.516975 -7.17818,2.213464 -7.178178,2.213466 -6.96312,3.43712 -6.963119,3.437121 -5.940106,3.881552 -5.940106,3.881552 -8.305727,8.305726 -8.305726,8.305727 -3.881552,5.940106 -3.881552,5.940106 -3.437121,6.963119 -3.43712,6.96312 -2.213466,7.178178 -2.213464,7.17818 -1.516975,8.69897 -1.516973,8.69897 v 133.92312 133.92311 l 1.516973,8.69897 1.516975,8.69897 2.213464,7.17818 2.213466,7.17818 3.43712,6.96312 3.437121,6.96311 3.887782,5.8572 3.887782,5.85719 5.718852,6.17827 5.718851,6.17826 6.501635,4.92275 6.501635,4.92276 9.086232,4.69285 9.086231,4.69285 9.186326,2.6255 9.18633,2.6255 6.19354,0.90688 6.19355,0.90688 138.32258,-0.15334 138.32257,-0.15332 z m -222.92764,-71.95155 -0.59788,-0.96738 -1.18348,-8.58101 -1.18349,-8.581 -0.0319,-18.06451 -0.0319,-18.06452 1.30219,-6.19355 1.30219,-6.19354 11.80497,-48.68868 11.80501,-48.68868 -0.0133,-1.89197 -0.0133,-1.89196 -2.10666,-6.70968 -2.10665,-6.70967 -0.57268,-9.80646 -0.57267,-9.80645 1.66033,-7.03153 1.66033,-7.03155 2.76711,-5.84917 2.7671,-5.84918 4.71682,-4.70064 4.71683,-4.70063 5.16129,-2.4412 5.16129,-2.44118 7.22581,-0.0119 7.2258,-0.0119 4.25725,2.18271 4.25725,2.18271 2.81204,3.34192 2.81203,3.34191 1.00491,2.63884 1.0049,2.63883 0.9566,5.0364 0.95661,5.03638 -1.07252,6.83458 -1.07251,6.83457 -3.06084,10.83871 -3.06082,10.83871 -4.12119,13.41377 -4.1212,13.41377 -0.64049,4.8282 -0.64048,4.82821 1.25276,5.22207 1.25275,5.22206 3.38127,4.42832 3.38127,4.4283 5.55279,3.0754 5.55278,3.07538 h 10.32258 10.32258 l 6.70968,-3.21069 6.70968,-3.21068 4.93131,-4.38565 4.93132,-4.38563 4.49372,-6.33915 4.49373,-6.33916 2.85274,-5.67742 2.85274,-5.67742 2.46384,-7.22581 2.46385,-7.2258 1.42523,-6.19355 1.42524,-6.19355 1.26956,-10.21266 1.26956,-10.21265 -0.60136,-11.46476 -0.60136,-11.46477 -1.72532,-5.67742 -1.72531,-5.67742 -2.89235,-5.731 -2.89235,-5.731 -4.27885,-5.41314 -4.27883,-5.41314 -6.39017,-4.74647 -6.39017,-4.74647 -6.19354,-2.81791 -6.19355,-2.8179 -7.22581,-1.79826 -7.22581,-1.79827 -9.29032,-0.79233 -9.29032,-0.79232 -10.32258,0.94851 -10.32258,0.94851 -4.12903,1.0392 -4.12903,1.03918 -8.25807,3.18221 -8.25806,3.18219 -8.42245,5.55177 -8.42245,5.55178 -6.5453,7.10158 -6.54529,7.10157 -3.46282,5.76873 -3.46283,5.76871 -2.62639,6.48133 -2.62638,6.48133 -1.40539,5.16129 -1.40538,5.16129 -0.64747,9.34107 -0.64747,9.34106 1.24517,7.17507 1.24518,7.17506 2.02889,4.64516 2.0289,4.64516 4.82758,7.03907 4.82758,7.03906 -2.41268,9.47707 -2.41267,9.47706 -1.44168,2.32258 -1.44167,2.32258 h -2.88966 -2.88967 l -6.11879,-3.28816 -6.1188,-3.28814 -6.75114,-6.77637 -6.75114,-6.77636 -3.7062,-7.74194 -3.70621,-7.74193 -1.60076,-5.67742 -1.60077,-5.67742 -1.24742,-8.69044 -1.24741,-8.69043 0.64474,-9.37408 0.64473,-9.37408 2.06747,-8.52846 2.06747,-8.52844 3.84854,-8.50381 3.84855,-8.50381 3.55203,-5.67742 3.55203,-5.67742 6.51564,-7.74193 6.51565,-7.74194 4.93517,-4.21948 4.93516,-4.21947 7.1428,-4.88796 7.14282,-4.88797 6.79267,-3.41902 6.79268,-3.41901 8.77419,-3.0742 8.7742,-3.0742 7.74193,-1.64999 7.74194,-1.64999 8.07469,-1.07194 8.07469,-1.07193 h 11.93116 11.93116 l 10.44576,1.64832 10.44576,1.64833 9.29032,2.96309 9.29032,2.96309 8.98413,4.58477 8.98413,4.58477 7.78371,5.85819 7.78371,5.85819 7.00144,7.59839 7.00144,7.59838 4.95097,8.32316 4.95098,8.32317 3.02149,8.27907 3.02149,8.27908 1.54857,8.88021 1.54859,8.88022 -0.0201,8.38091 -0.0201,8.38092 -1.44617,10.86146 -1.44618,10.86147 -2.18889,8.57301 -2.18888,8.57302 -3.12926,7.92036 -3.12926,7.92035 -3.71607,6.70968 -3.71605,6.70968 -4.13781,5.67742 -4.1378,5.67742 -6.42391,6.34589 -6.42392,6.34589 -6.03452,4.09185 -6.03452,4.09185 -5.16129,2.58009 -5.16129,2.58009 -6.70968,2.15535 -6.70967,2.15535 -6.12507,1.08488 -6.12507,1.08488 h -8.77672 -8.77672 l -6.77563,-1.66674 -6.77563,-1.66675 -6.91047,-3.59232 -6.91047,-3.59231 -5.20054,-5.4988 -5.20055,-5.49881 -0.9793,3.79013 -0.9793,3.79012 -5.27589,20.12903 -5.27587,20.12903 -2.18267,6.19355 -2.18269,6.19355 -4.57685,9.29032 -4.57686,9.29032 -5.56208,8.38477 -5.56209,8.38476 -4.75452,6.32491 -4.75452,6.32492 h -1.39997 -1.39997 l -0.59788,-0.96739 z"
       id="path293"
       inkscape:label="Pinterest" />
  </g>
</svg>
