<?xml version="1.0" encoding="UTF-8" standalone="no"?>
<!-- Created with Inkscape (http://www.inkscape.org/) -->

<svg
   version="1.1"
   id="svg2"
   width="877.71429"
   height="877.71429"
   viewBox="0 0 877.71429 877.71429"
   sodipodi:docname="Send.svg"
   inkscape:version="1.2.1 (9c6d41e410, 2022-07-14)"
   xmlns:inkscape="http://www.inkscape.org/namespaces/inkscape"
   xmlns:sodipodi="http://sodipodi.sourceforge.net/DTD/sodipodi-0.dtd"
   xmlns="http://www.w3.org/2000/svg"
   xmlns:svg="http://www.w3.org/2000/svg">
  <defs
     id="defs6" />
  <sodipodi:namedview
     id="namedview4"
     pagecolor="#505050"
     bordercolor="#eeeeee"
     borderopacity="1"
     inkscape:showpageshadow="0"
     inkscape:pageopacity="0"
     inkscape:pagecheckerboard="0"
     inkscape:deskcolor="#505050"
     showgrid="false"
     inkscape:zoom="0.89778645"
     inkscape:cx="375.92459"
     inkscape:cy="438.85715"
     inkscape:window-width="1920"
     inkscape:window-height="986"
     inkscape:window-x="-11"
     inkscape:window-y="-11"
     inkscape:window-maximized="1"
     inkscape:current-layer="g8" />
  <g
     inkscape:groupmode="layer"
     inkscape:label="Send"
     id="g8">
    <path
       style="fill:#000000;stroke-width:1.71429"
       d="m 468.88829,629.25607 -109.74543,-109.60109 -50.49664,34.96822 -50.49661,34.96821 -4.91201,2.03462 -4.912,2.03461 -5.70845,-2.72216 -5.70843,-2.72217 -1.74942,-5.67958 -1.74941,-5.67958 L 212.53812,464.57143 191.66637,352.28572 96.720468,257.14286 1.7745669,162 l -1.05968282,-5.362 -1.05968288,-5.36199 2.0246704,-3.78313 2.0246704,-3.78314 5.8069543,-2.4263 5.8069537,-2.4263 h 423.53869 423.5387 l 5.80696,2.4263 5.80695,2.4263 2.02466,3.78314 2.02467,3.78313 -0.93348,4.66742 -0.93348,4.66743 L 737.25405,445.87685 598.31597,731.14286 593.91953,735 l -4.39644,3.85715 h -5.44467 -5.44469 z m 238.37219,-188.3011 124.64947,-255.90216 -0.78643,-0.78643 -0.78643,-0.78645 -263.88283,109.4518 -263.88283,109.45179 -6.78987,2.87174 -6.78988,2.87172 145.60228,145.60983 145.60227,145.60982 1.20739,-1.24474 1.20737,-1.24474 z m -397.83191,77.86904 27.42857,-18.85287 0.77683,-0.61953 0.77681,-0.61954 -30.75896,-30.7946 -30.75895,-30.79461 h -0.94279 -0.94277 l -3.87869,47.57143 -3.87868,47.57143 -1.02288,8.4007 -1.02289,8.40069 8.39792,-5.70511 L 282,537.67687 Z m -62.54875,-93.35285 2.16156,-27.95741 2.76503,-3.40704 2.76502,-3.40704 L 432,317.10256 l 177.42857,-73.5971 -1.43727,-0.0385 -1.43727,-0.0384 -190.56273,55.02731 -190.56273,55.0273 -1.86343,1.11555 -1.86341,1.11556 10.40659,55.60189 10.40659,55.60192 1.10169,-6.74477 1.10166,-6.74476 z m 234.40002,-176.08315 270.43445,-78.04057 3.42857,-1.5577 3.42857,-1.55769 L 405,168.11602 51.428572,168 v 1.2788 1.2788 l 78.421588,78.43549 78.42158,78.43548 h 1.28682 1.28681 z"
       id="path293"
       inkscape:label="Send" />
  </g>
</svg>
