<?xml version="1.0" encoding="UTF-8" standalone="no"?>
<!-- Created with Inkscape (http://www.inkscape.org/) -->

<svg
   version="1.1"
   id="svg2"
   width="512"
   height="512"
   viewBox="0 0 512 512"
   sodipodi:docname="Twitter.svg"
   inkscape:version="1.2.1 (9c6d41e410, 2022-07-14)"
   xmlns:inkscape="http://www.inkscape.org/namespaces/inkscape"
   xmlns:sodipodi="http://sodipodi.sourceforge.net/DTD/sodipodi-0.dtd"
   xmlns="http://www.w3.org/2000/svg"
   xmlns:svg="http://www.w3.org/2000/svg">
  <defs
     id="defs6" />
  <sodipodi:namedview
     id="namedview4"
     pagecolor="#505050"
     bordercolor="#eeeeee"
     borderopacity="1"
     inkscape:showpageshadow="0"
     inkscape:pageopacity="0"
     inkscape:pagecheckerboard="0"
     inkscape:deskcolor="#505050"
     showgrid="false"
     inkscape:zoom="1.5390625"
     inkscape:cx="219.28934"
     inkscape:cy="256"
     inkscape:window-width="1920"
     inkscape:window-height="986"
     inkscape:window-x="-11"
     inkscape:window-y="-11"
     inkscape:window-maximized="1"
     inkscape:current-layer="g8" />
  <g
     inkscape:groupmode="layer"
     inkscape:label="Twitter"
     id="g8">
    <path
       style="fill:#000000"
       d="M 144,462.94043 133.5,462.01326 121,459.9332 108.5,457.85314 96.802012,454.92493 85.104024,451.99673 75.802012,448.89996 66.5,445.8032 55.869904,441.47009 45.239808,437.13698 34.369904,431.62585 23.5,426.11473 15.501362,421.25028 7.5027248,416.38583 5.2513624,413.04503 3,409.70423 v -4.61771 -4.61772 L 4.8516112,396.9844 6.7032224,393.5 10.101611,391.17411 13.5,388.84822 l 17,0.68585 17,0.68585 11.5,-1.15013 11.5,-1.15014 11.383181,-2.53987 11.38318,-2.53987 9.616819,-3.3562 9.61682,-3.35621 4.82337,-2.143 4.82337,-2.143 -7.32337,-3.68942 -7.32337,-3.68943 -6,-3.97492 -6,-3.97493 -8.333866,-7.97473 -8.333865,-7.97473 -4.946078,-6.53167 -4.946078,-6.53167 -4.966199,-9.83282 -4.966198,-9.83282 -1.557989,-5.3593 -1.557989,-5.35929 1.033677,-3.83878 1.033677,-3.83879 1.428764,-1.95395 1.428764,-1.95395 -7.456419,-7.80454 -7.456418,-7.80455 -5.554564,-8.52145 -5.554563,-8.52145 -3.475339,-8.01962 -3.475339,-8.01961 -2.426551,-9.56575 -2.426552,-9.56575 -0.633701,-9.66983 -0.633702,-9.66983 1.19932,-3.63398 1.199319,-3.63397 3.457284,-3.03554 3.457284,-3.03553 2.44787,-0.61438 2.447869,-0.61437 -2.518599,-4.97022 -2.5186,-4.97022 -2.835487,-8.67985 -2.835487,-8.67986 -1.237887,-7.67912 -1.237886,-7.67911 0.522425,-14.82089 0.522425,-14.82088 2.641561,-9.46499 2.641561,-9.464984 4.511136,-9.523101 4.511136,-9.523101 2.200642,-2.356926 L 42.5,68.809972 45.20034,67.404986 47.90068,66 h 4.115402 4.115401 l 2.184258,1.156403 2.184259,1.156404 17,17.189899 17,17.189894 8.5,6.70161 8.5,6.70161 9.5,6.33875 9.5,6.33876 11,6.04539 11,6.04539 13,5.4921 13,5.49211 12,3.64074 12,3.64074 11,2.35792 11,2.35791 5.56978,0.66989 5.56979,0.66989 1.1431,-12.85275 1.14309,-12.85275 2.57686,-8.98995 2.57685,-8.98996 3.47976,-7.39484 3.47976,-7.39484 4.72235,-7.105159 4.72236,-7.105161 6.90901,-7.274979 6.90901,-7.274979 7.36703,-5.544591 7.36703,-5.54459 8.24438,-4.385764 8.24438,-4.385763 6.98773,-2.63679 6.98773,-2.636789 8.5,-1.905467 8.5,-1.905467 10.5,-0.635276 10.5,-0.635276 8.65619,1.157624 8.65619,1.157625 7.84381,2.037291 7.84381,2.037292 10.13016,4.819307 10.13016,4.819308 5.86984,3.988356 5.86984,3.988357 5.08179,4.571722 5.0818,4.571723 6.83862,1.190894 6.83861,1.190894 7.37729,-0.62361 7.37729,-0.623609 7.7023,-2.571197 7.7023,-2.571197 6.5,-3.59777 6.5,-3.59777 4.57834,-0.03206 4.57834,-0.03206 3.41826,1.996374 3.41826,1.996373 2.3594,3.445934 2.35939,3.445934 -0.51954,9.5 -0.51953,9.5 -2.70523,8.499996 -2.70522,8.5 -4.01609,8 -4.01608,8 -4.03293,6 -4.03293,6 -6.24352,7.5 -6.24352,7.5 -3.99207,3.85859 -3.99207,3.8586 -0.66441,13.6414 -0.66441,13.64141 -1.45322,12.33357 -1.45323,12.33356 -2.54385,12.04833 -2.54386,12.04833 -3.39996,11.69955 -3.39996,11.69956 -5.39173,13.41855 -5.39173,13.41855 -4.77672,9.5 -4.77673,9.5 -6.01739,10 -6.01739,10 -4.56197,6.5 -4.56198,6.5 -7.4649,9.5 -7.46491,9.5 -14.07246,14.07899 -14.07245,14.079 -8.5,6.75938 -8.5,6.75939 -13.35738,8.90074 -13.35738,8.90074 -14.64262,7.39619 -14.64262,7.39619 -11.83734,4.66285 -11.83734,4.66285 -11.81206,3.39986 -11.81206,3.39987 -12.3506,2.54643 -12.3506,2.54644 -12,1.56573 -12,1.56574 -21,0.3736 -21,0.3736 -10.5,-0.92716 z m 65.5,-33.81333 13,-1.98603 9,-2.02589 9,-2.0259 10,-2.9817 10,-2.9817 11.5,-4.61753 11.5,-4.61752 11.5,-6.00955 11.5,-6.00954 12.5,-8.4029 12.5,-8.40289 10,-8.39188 10,-8.39187 9.00398,-9.42161 9.00398,-9.4216 6.79393,-8.46949 6.79393,-8.4695 6.31971,-9.5 6.31972,-9.5 5.32045,-9.47063 5.32045,-9.47063 4.88788,-11.02937 4.88789,-11.02937 4.33571,-13 4.33572,-13 2.55116,-11.5 2.55116,-11.5 1.60525,-12 1.60525,-12 0.37566,-19.19087 0.37566,-19.19088 1.52423,-2.94754 1.52424,-2.94754 6.45363,-5.13531 6.45363,-5.13531 4.94207,-5.72628 4.94206,-5.72627 4.63632,-6.93611 L 469,113.62778 v -0.67962 -0.67961 l -4.25,0.82217 -4.25,0.82218 -13.5,0.0262 -13.5,0.0262 -6.66377,-1.41236 -6.66378,-1.41237 -3.33622,-1.71081 L 413.5,107.71892 407.48046,102.10946 401.46092,96.5 395.48046,92.523014 389.5,88.546029 380.94326,85.325976 372.38652,82.105922 365.94326,81.060515 359.5,80.015108 352.36047,80.007554 345.22094,80 l -8.36047,1.585013 -8.36047,1.585013 -7.85186,3.026954 -7.85186,3.026954 -8.82039,5.89986 -8.82038,5.899856 -6.17852,6.73818 -6.17853,6.73817 -3.98001,6.69415 -3.98002,6.69415 -2.375,6.8293 -2.37499,6.82929 -1.16665,7.47656 -1.16665,7.47655 0.60339,7.90901 0.60339,7.909 1.1511,5.85094 1.1511,5.85093 -1.72134,4.50727 -1.72134,4.50726 -3.31776,2.53058 -3.31776,2.53058 -3.46984,0.56308 -3.46984,0.56308 -12.37312,-1.18515 -12.37312,-1.18514 -11.5,-1.96408 -11.5,-1.96408 -13,-3.39795 -13,-3.39795 -9,-3.16468 -9,-3.16467 -9.5,-4.02101 -9.5,-4.02102 -9,-4.51127 -9,-4.51128 -10,-5.9997 -10,-5.9997 -6.5,-4.53043 -6.5,-4.53044 -9.5,-7.56238 -9.5,-7.56239 -8.156774,-7.82252 -8.156773,-7.82252 -1.093227,5.09753 L 55,121.09844 v 10.00338 10.00337 l 1.605545,7.1974 1.605545,7.19741 3.945828,8.49805 3.945828,8.49805 5.409151,7.06213 5.409151,7.06212 4.789476,3.9564 4.789476,3.95639 3.835139,2.84926 3.835138,2.84926 1.911124,3.13417 1.911123,3.13417 0.0037,4.36385 0.0037,4.36384 -2.117886,3.76827 -2.117885,3.76827 -3.768269,2.11788 L 86.227691,227 80.363845,226.96511 74.5,226.93022 l -7.963029,-1.41875 -7.963029,-1.41875 -0.297649,0.29765 -0.297648,0.29765 1.537609,4.35805 1.537608,4.35804 3.46566,6.19718 3.46566,6.19718 4.620262,5.67186 4.620262,5.67185 6.548206,5.40127 6.548207,5.40127 7.638285,3.97387 7.638286,3.97387 8.71193,2.52462 8.71192,2.52462 1.73873,0.93733 1.73873,0.93733 2.15415,2.34182 2.15415,2.34182 1.07556,3.96847 1.07557,3.96847 -1.06913,4.03153 -1.06913,4.03153 -2.16059,2.34501 -2.16058,2.34502 -2.57156,1.33839 -2.57156,1.33839 -7.92844,1.54449 -7.92844,1.54449 -3.45992,0.27211 -3.459926,0.2721 6.412616,6.84411 6.41262,6.84412 6.04731,4.28798 6.0473,4.28798 6,3.00311 6,3.00312 6.93393,2.13907 6.93393,2.13906 10.06607,1.05923 10.06607,1.05922 3.59371,2.32726 3.59372,2.32726 1.76999,3.72999 1.76999,3.72998 -0.45464,4.73149 -0.45463,4.7315 -2.17607,3.056 -2.17606,3.056 -12.23301,8.17947 -12.233,8.17947 -13.05071,6.38246 -13.05072,6.38245 -13.44928,4.42225 -13.44929,4.42224 -6.25,1.28767 -6.25,1.28766 v 0.56072 0.56072 l 11.25,3.19807 11.25,3.19807 10,1.95317 10,1.95318 9.5,1.09582 9.5,1.09582 4,0.39448 4,0.39449 21,-0.34578 21,-0.34578 z"
       id="path293"
       inkscape:label="Twitter" />
  </g>
</svg>
