<?xml version="1.0" encoding="UTF-8" standalone="no"?>
<!-- Created with Inkscape (http://www.inkscape.org/) -->

<svg
   version="1.1"
   id="svg2"
   width="546.1333"
   height="546.1333"
   viewBox="0 0 546.1333 546.1333"
   sodipodi:docname="YouTube.svg"
   inkscape:version="1.2.1 (9c6d41e410, 2022-07-14)"
   xmlns:inkscape="http://www.inkscape.org/namespaces/inkscape"
   xmlns:sodipodi="http://sodipodi.sourceforge.net/DTD/sodipodi-0.dtd"
   xmlns="http://www.w3.org/2000/svg"
   xmlns:svg="http://www.w3.org/2000/svg">
  <defs
     id="defs6" />
  <sodipodi:namedview
     id="namedview4"
     pagecolor="#505050"
     bordercolor="#eeeeee"
     borderopacity="1"
     inkscape:showpageshadow="0"
     inkscape:pageopacity="0"
     inkscape:pagecheckerboard="0"
     inkscape:deskcolor="#505050"
     showgrid="false"
     inkscape:zoom="1.4428712"
     inkscape:cx="233.90862"
     inkscape:cy="273.06665"
     inkscape:window-width="1920"
     inkscape:window-height="986"
     inkscape:window-x="-11"
     inkscape:window-y="-11"
     inkscape:window-maximized="1"
     inkscape:current-layer="g8" />
  <g
     inkscape:groupmode="layer"
     inkscape:label="YouTube"
     id="g8">
    <path
       style="fill:#000000;stroke-width:1.06667"
       d="m 249.59998,479.32711 -12.26666,-0.28719 -44.8,-1.16095 -44.8,-1.16096 -20.79999,-1.03553 -20.8,-1.03554 -10.666669,-1.13374 -10.666666,-1.13375 -8.88866,-1.54399 -8.888661,-1.544 -8.507393,-3.2808 -8.507395,-3.28079 -7.843352,-5.24596 -7.843351,-5.24595 -5.425258,-5.9361 -5.425258,-5.93609 -3.573076,-6.09653 -3.573076,-6.09653 -3.387318,-8.7836 -3.3873181,-8.78361 -2.5505118,-11.96943 -2.5505117,-11.96943 -1.139835,-14.4 -1.139835,-14.4 -1.22306886,-27.19999 -1.22306883,-27.2 0.60745727,-48.53333 0.60745728,-48.53333 1.69432724,-22.93333 1.6943274,-22.93334 2.7386705,-12.26666 2.7386703,-12.26667 3.2465603,-8.53333 3.246558,-8.53333 2.728534,-4.8 2.728533,-4.8 3.490833,-4.64469 3.490831,-4.64469 7.232096,-6.385058 7.232094,-6.385057 6.4,-3.566252 6.4,-3.566251 7.999999,-2.672586 8,-2.672585 6.933333,-1.145217 6.933332,-1.145216 27.733329,-1.558904 27.73333,-1.558903 33.6,-1.249082 33.6,-1.249083 63.46666,-0.01486 63.46667,-0.01486 35.19999,1.277245 35.2,1.277245 26.86131,1.527425 26.86131,1.527425 6.9099,1.103861 6.9099,1.103862 7.29545,2.249582 7.29546,2.249583 5.33333,2.672652 5.33334,2.672652 6.56481,4.653756 6.56481,4.653755 6.39192,7.082181 6.39193,7.08218 4.31507,8.70817 4.31507,8.70817 2.67474,9.22998 2.67473,9.22997 1.64936,8.69464 1.64934,8.69464 1.80164,23.63716 1.80163,23.63715 0.0691,62.4 0.0691,62.39999 -1.37639,20.8 -1.37638,20.8 -1.0947,8.53333 -1.09469,8.53334 -2.50964,10.21155 -2.50965,10.21155 -3.32005,8.60918 -3.32004,8.60919 -4.14384,6.41132 -4.14384,6.41132 -4.04447,4.47675 -4.04447,4.47673 -5.91091,4.54438 -5.91092,4.54436 -6.4,3.22439 -6.4,3.22439 -6.95652,2.14586 -6.95653,2.14587 -7.97681,1.17901 -7.97681,1.17901 -28.26666,1.5606 -28.26667,1.56062 -35.73333,1.05813 -35.73333,1.05814 -34.13333,0.38598 -34.13333,0.386 -12.26667,-0.2872 z m 120,-33.54002 33.06666,-1.04922 28.10729,-1.57709 28.10727,-1.57708 7.27221,-1.5163 7.27223,-1.5163 6.19943,-3.0089 6.19943,-3.00889 5.98388,-5.96281 5.98386,-5.96279 3.54962,-8.43721 3.54962,-8.43719 2.52783,-10.13333 2.52782,-10.13334 1.76689,-21.86666 1.76688,-21.86667 0.0214,-66.13333 0.0214,-66.13333 -1.81472,-22.39999 -1.81472,-22.4 -1.69017,-7.8886 -1.69016,-7.88861 -3.24576,-8.97011 -3.24577,-8.97011 -4.11013,-5.19969 -4.11012,-5.19969 -4.56775,-3.12896 -4.56776,-3.12896 -4.26666,-2.14666 -4.26667,-2.14666 -7.46667,-1.76315 -7.46666,-1.76315 -36.26667,-2.02988 -36.26666,-2.02987 -56.8,-1.287662 -56.79999,-1.287658 -56.8,1.274418 -56.8,1.274422 -36.8,2.03332 -36.799993,2.03332 -7.757342,2.05799 -7.757341,2.05799 -5.953395,3.58231 -5.953395,3.58232 -5.636525,6.06516 -5.636525,6.06516 -3.393092,8.86817 -3.393092,8.86817 -2.068089,8.53333 -2.068089,8.53334 -1.817625,22.4 -1.817625,22.39999 -0.0075,65.6 -0.0075,65.6 1.818317,22.93333 1.818316,22.93333 2.070477,8.53333 2.070477,8.53334 2.787463,7.46666 2.787464,7.46667 3.741943,5.12309 3.741942,5.12309 6.538414,4.22599 6.538415,4.22598 6.875677,2.12368 6.875677,2.12368 12.401261,1.56458 12.401255,1.56458 20.8,1.05952 20.8,1.05953 41.06666,1.15208 41.06667,1.15207 13.86666,0.31215 13.86667,0.31215 40,-0.40959 39.99999,-0.40958 33.06667,-1.04922 z m -148.26666,-91.58452 -3.2,-0.77904 -3.41153,-1.77732 -3.41152,-1.77732 -2.5745,-3.46779 -2.57449,-3.46779 -1.21399,-3.62583 -1.21397,-3.62585 v -68.96472 -68.96472 l 2.70198,-5.42218 2.70199,-5.42217 4.40681,-3.05392 4.40682,-3.05393 h 7.6066 7.60659 l 61.60989,33.6 61.60989,33.59999 4.23982,3.577 4.23983,3.57698 1.63558,3.88968 1.63558,3.88968 0.009,5.64294 0.009,5.64294 -2.67542,4.56525 -2.67541,4.56526 -4.06744,2.7323 -4.06744,2.73231 -59.16977,31.76838 -59.16976,31.76837 -4.73309,1.42446 -4.73309,1.42445 -1.16381,-0.10919 -1.16381,-0.10918 -3.2,-0.77904 z m 59.79797,-62.20135 44.1283,-23.73211 -1.29647,-1.16501 -1.29647,-1.16502 -37.86667,-20.61192 -37.86666,-20.61192 -5.6,-3.12611 -5.6,-3.12612 v 48.63515 48.63515 h 0.63484 0.63483 z"
       id="path293"
       inkscape:label="YouTube" />
  </g>
</svg>
